<?xml version="1.0" encoding="UTF-8" standalone="no"?>
<svg width="374px" height="171px" viewBox="0 0 374 171" version="1.1" xmlns="http://www.w3.org/2000/svg" xmlns:xlink="http://www.w3.org/1999/xlink">
    <!-- Generator: Sketch Beta 39 (31443) - http://www.bohemiancoding.com/sketch -->
    <title>subtitle</title>
    <desc>Created with Sketch Beta.</desc>
    <defs></defs>
    <g id="Page-1" stroke="none" stroke-width="1" fill="none" fill-rule="evenodd">
        <g id="TUTTI-IN-REGOLA-versione-completa" transform="translate(-111.000000, -583.000000)">
            <g id="subtitle" transform="translate(112.000000, 585.000000)">
                <g id="incentivi">
                    <polygon id="Fill-177" fill="#FFFFFF" points="101.0332 49.1183 0.3262 49.1183 0.3262 18.9073 19.0142 0.2203 119.7182 0.2203 119.7182 30.4303"></polygon>
                    <path d="M101.0332,49.1183 L0.3262,49.1183 L0.3262,18.9073 L19.0142,0.2203 L119.7182,0.2203 L119.7182,30.4303 L101.0332,49.1183 L101.0332,49.1183 Z M0.3262,49.1183 L19.0142,30.4303 L19.0142,0.2203" id="Stroke-178" stroke="#000000" stroke-width="2.492"></path>
                    <path d="M90.9614,49.1183 L109.6494,30.4303 M80.8924,49.1183 L99.5774,30.4303 M70.8204,49.1183 L89.5084,30.4303 M60.7514,49.1183 L79.4364,30.4303 M50.6794,49.1183 L69.3674,30.4303 M40.6074,49.1183 L59.2964,30.4303 M30.5394,49.1183 L49.2274,30.4303 M20.4674,49.1183 L39.1554,30.4303 M10.3984,49.1183 L29.0864,30.4303 M0.3264,49.1183 L19.0144,30.4303 M19.0144,10.2903 L0.3264,28.9773 M19.0144,20.3593 L0.3264,39.0463" id="Stroke-179" stroke="#000000" stroke-width="1.246"></path>
                    <path d="M119.7185,30.4303 L19.0145,30.4303" id="Stroke-180" stroke="#000000" stroke-width="2.492"></path>
                    <text id="INCENTIVI" font-family="ConduitITC-Bold, Conduit ITC" font-size="23" font-style="condensed" font-weight="bold" letter-spacing="-0.5" fill="#000000">
                        <tspan x="29" y="22.628">INCENTIV</tspan>
                        <tspan x="103.384" y="22.628">I</tspan>
                    </text>
                </g>
                <g id="agevolata" transform="translate(20.000000, 39.000000)">
                    <polygon id="Fill-181" fill="#FFFFFF" points="19.1221 49.672 351.4491 49.672 351.4491 19.46 332.7641 0.774 0.4341 0.774 0.4341 30.984"></polygon>
                    <path d="M19.1221,49.672 L351.4491,49.672 L351.4491,19.46 L332.7641,0.774 L0.4341,0.774 L0.4341,30.984 L19.1221,49.672 L19.1221,49.672 Z M351.4491,49.672 L332.7641,30.984 L332.7641,0.774" id="Stroke-182" stroke="#000000" stroke-width="2.492"></path>
                    <path d="M120.5552,49.672 L101.8672,30.984 M139.9692,49.672 L121.2812,30.984 M150.0412,49.672 L131.3532,30.984 M160.1102,49.672 L141.4222,30.984 M170.1822,49.672 L151.4942,30.984 M180.2512,49.672 L161.5632,30.984 M190.3232,49.672 L171.6352,30.984 M200.3922,49.672 L181.7032,30.984 M210.4632,49.672 L191.7752,30.984 M220.5332,49.672 L201.8442,30.984 M230.6042,49.672 L211.9162,30.984 M240.6732,49.672 L221.9882,30.984 M250.7452,49.672 L232.0572,30.984 M260.8142,49.672 L242.1292,30.984 M270.8862,49.672 L252.1982,30.984 M280.9582,49.672 L262.2692,30.984 M291.0262,49.672 L272.3382,30.984 M301.0982,49.672 L282.4102,30.984 M311.1672,49.672 L292.4792,30.984 M321.2392,49.672 L302.5512,30.984 M331.3082,49.672 L312.6232,30.984 M341.3802,49.672 L322.6922,30.984 M351.4492,49.672 L332.7632,30.984 M109.7572,49.672 L91.0712,30.984 M130.9372,49.672 L112.2492,30.984 M99.6882,49.672 L81.0002,30.984 M89.6162,49.672 L70.9312,30.984 M79.5472,49.672 L60.8592,30.984 M69.4752,49.672 L50.7902,30.984 M59.4032,49.672 L40.7182,30.984 M49.3352,49.672 L30.6462,30.984 M39.2632,49.672 L20.5772,30.984 M29.1912,49.672 L10.5062,30.984 M332.7632,10.843 L351.4492,29.531 M332.7632,20.912 L351.4492,39.6" id="Stroke-183" stroke="#000000" stroke-width="1.246"></path>
                    <path d="M0.4341,30.984 L332.7641,30.984" id="Stroke-184" stroke="#000000" stroke-width="2.492"></path>
                    <text id="PER-LA-REGOLARIZZAZI" font-family="ConduitITC-Bold, Conduit ITC" font-size="23" font-style="condensed" font-weight="bold" letter-spacing="-0.5" fill="#000000">
                        <tspan x="7" y="22">PER LA REGOLARIZZAZIONE AGEVOLAT</tspan>
                        <tspan x="315.829" y="22">A</tspan>
                    </text>
                </g>
                <g id="micro" transform="translate(38.000000, 79.000000)">
                    <polygon id="Fill-185" fill="#FFFFFF" points="211.9084 49.2259 0.4294 49.2259 0.4294 19.0149 19.1174 0.3279 230.5934 0.3279 230.5934 30.5379"></polygon>
                    <polygon id="Stroke-186" stroke="#000000" stroke-width="2.492" points="211.9084 49.2259 0.4294 49.2259 0.4294 19.0149 19.1174 0.3279 230.5934 0.3279 230.5934 30.5379"></polygon>
                    <polyline id="Stroke-187" stroke="#000000" stroke-width="2.492" points="0.429 49.2259 19.117 30.5379 19.117 0.3279"></polyline>
                    <path d="M91.064,49.2259 L109.752,30.5379 M80.995,49.2259 L99.68,30.5379 M70.923,49.2259 L89.611,30.5379 M60.854,49.2259 L79.539,30.5379 M50.782,49.2259 L69.47,30.5379 M40.71,49.2259 L59.399,30.5379 M30.642,49.2259 L49.33,30.5379 M161.555,49.2259 L180.243,30.5379 M151.486,49.2259 L170.172,30.5379 M141.414,49.2259 L160.103,30.5379 M131.345,49.2259 L150.031,30.5379 M121.274,49.2259 L139.962,30.5379 M111.202,49.2259 L129.89,30.5379 M101.133,49.2259 L119.821,30.5379 M201.837,49.2259 L220.525,30.5379 M191.768,49.2259 L210.453,30.5379 M181.696,49.2259 L200.384,30.5379 M171.624,49.2259 L190.312,30.5379 M20.57,49.2259 L39.258,30.5379 M10.501,49.2259 L29.189,30.5379 M0.429,49.2259 L19.117,30.5379 M19.117,10.3969 L0.429,29.0849 M19.117,20.4669 L0.429,39.1539" id="Stroke-188" stroke="#000000" stroke-width="1.246"></path>
                    <path d="M230.5937,30.5377 L19.1167,30.5377" id="Stroke-189" stroke="#000000" stroke-width="2.492"></path>
                    <text id="DELLE-MICRO-E-PICCOL" font-family="ConduitITC-Bold, Conduit ITC" font-size="23" font-style="condensed" font-weight="bold" letter-spacing="-0.5" fill="#000000">
                        <tspan x="27" y="22">DELLE MICRO E PICCOLE</tspan>
                    </text>
                </g>
                <g id="imprese" transform="translate(177.000000, 118.000000)">
                    <polyline id="Fill-190" fill="#FFFFFF" points="19.6443 49.0521 110.2823 49.0521 110.2823 18.8411 91.5933 0.1541 0.9593 0.1541 0.9593 30.3641"></polyline>
                    <path d="M19.6443,49.0521 L110.2823,49.0521 L110.2823,18.8411 L91.5933,0.1541 L0.9593,0.1541 L0.9593,30.3641 L19.6443,49.0521 L19.6443,49.0521 Z M110.2823,49.0521 L91.5933,30.3641 L91.5933,0.1541" id="Stroke-191" stroke="#000000" stroke-width="2.492"></path>
                    <path d="M29.7161,49.0521 L11.0311,30.3641 M39.7881,49.0521 L21.1001,30.3641 M49.8571,49.0521 L31.1721,30.3641 M59.9291,49.0521 L41.2401,30.3641 M70.0001,49.0521 L51.3121,30.3641 M80.0691,49.0521 L61.3811,30.3641 M90.1411,49.0521 L71.4531,30.3641 M100.2101,49.0521 L81.5221,30.3641 M110.2821,49.0521 L91.5941,30.3641 M91.5941,10.2231 L110.2821,28.9111 M91.5941,20.2931 L110.2821,38.9801" id="Stroke-192" stroke="#000000" stroke-width="1.246"></path>
                    <path d="M0.959,30.3639 L91.594,30.3639" id="Stroke-193" stroke="#000000" stroke-width="2.492"></path>
                    <text id="IMPRESE" font-family="ConduitITC-Bold, Conduit ITC" font-size="23" font-style="condensed" font-weight="bold" letter-spacing="-0.5" fill="#000000">
                        <tspan x="9" y="22">IMPRESE</tspan>
                    </text>
                </g>
            </g>
        </g>
    </g>
</svg>