<?xml version="1.0" encoding="UTF-8" standalone="no"?>
<svg width="498px" height="277px" viewBox="0 0 498 277" version="1.1" xmlns="http://www.w3.org/2000/svg" xmlns:xlink="http://www.w3.org/1999/xlink">
    <!-- Generator: Sketch Beta 39 (31443) - http://www.bohemiancoding.com/sketch -->
    <title>title</title>
    <desc>Created with Sketch Beta.</desc>
    <defs></defs>
    <g id="Page-1" stroke="none" stroke-width="1" fill="none" fill-rule="evenodd">
        <g id="TUTTI-IN-REGOLA-versione-completa" transform="translate(-47.000000, -154.000000)">
            <g id="title" transform="translate(49.000000, 155.000000)">
                <g id="tutti" transform="translate(26.000000, 0.000000)">
                    <polygon id="Fill-2" fill="#FFFFFF" points="247.6224 152.7455 1.1434 152.7455 1.1434 29.5065 29.7274 0.9235 276.2094 0.9235 276.2094 124.1595"></polygon>
                    <polygon id="Stroke-3" stroke="#000000" stroke-width="3.463" points="247.7604 152.9195 0.9694 152.9195 0.9694 29.3985 29.5894 0.7495 276.3844 0.7495 276.3844 124.2685"></polygon>
                    <path d="M108.9808,152.8072 L137.5858,124.1822 M124.3988,152.8072 L153.0038,124.1822 M1.0818,91.1092 L29.6838,62.4822 M139.8098,152.8072 L168.4168,124.1822 M155.2258,152.8072 L183.8308,124.1822 M170.6408,152.8072 L199.2458,124.1822" id="Stroke-4" stroke="#000000" stroke-width="1.732"></path>
                    <polyline id="Stroke-5" stroke="#000000" stroke-width="3.463" points="1.014 152.8627 29.902 124.2547 29.902 0.9237"></polyline>
                    <path d="M16.4926,152.8072 L45.0936,124.1952 M31.9066,152.8072 L60.5046,124.1952 M47.3156,152.8072 L75.9166,124.1952 M62.7316,152.8072 L91.3316,124.1952 M78.1406,152.8072 L106.7426,124.1952 M93.5556,152.8072 L122.1566,124.1952 M186.0286,152.8072 L214.6286,124.1952 M201.4436,152.8072 L230.0416,124.1952 M216.8526,152.8072 L245.4556,124.1952 M232.2686,152.8072 L260.8646,124.1952 M29.6796,16.2652 L1.0816,44.8772 M29.6796,31.6832 L1.0816,60.2992 M29.6796,47.1032 L1.0816,75.7152 M29.6796,77.9412 L1.0816,106.5532 M29.6796,93.3572 L1.0816,121.9742 M29.6796,108.7782 L1.0816,137.3912" id="Stroke-6" stroke="#000000" stroke-width="1.732"></path>
                    <path d="M275.2096,124.1429 L29.7276,124.1429" id="Stroke-7" stroke="#000000" stroke-width="3.463"></path>
                    <text id="TUTTI" font-family="ConduitITC-Bold, Conduit ITC" font-size="105" font-style="condensed" font-weight="bold" fill="#000000">
                        <tspan x="48" y="94">TUTTI</tspan>
                    </text>
                </g>
                <g id="cube" transform="translate(0.000000, 138.000000)">
                    <polygon id="Fill-8" fill="#FFFFFF" points="28.9647 90.7425 85.0177 90.7425 85.0177 29.1195 56.4307 0.5355 0.3777 0.5355 0.3777 62.1555"></polygon>
                    <path d="M28.9083,90.9166 L85.1923,90.9166 L85.1923,29.0556 L56.4873,0.3616 L0.2033,0.3616 L0.2033,62.2186 L28.9083,90.9166 L28.9083,90.9166 Z M85.1922999,90.9166003 L56.4873,62.2186 L56.4873,0.3616" id="Stroke-9" stroke="#000000" stroke-width="3.463"></path>
                    <path d="M56.3685,15.8775 L85.0805,44.5235 M56.3685,31.3155 L85.0805,59.9615 M56.3685,46.7555 L85.0805,75.3965" id="Stroke-10" stroke="#000000" stroke-width="1.732"></path>
                    <path d="M0.3774,62.2352 L56.4304,62.2352" id="Stroke-11" stroke="#000000" stroke-width="3.463"></path>
                    <path d="M66.1166,71.6168 L9.9076,71.6168 M77.7166,81.2778 L19.4366,81.2778" id="Stroke-12" stroke="#000000" stroke-width="1.362"></path>
                    <text id="IN" font-family="ConduitITC-Bold, Conduit ITC" font-size="45" font-style="condensed" font-weight="bold" fill="#000000">
                        <tspan x="10" y="46">IN</tspan>
                    </text>
                </g>
                <g id="regola" transform="translate(111.000000, 137.000000)">
                    <polygon id="Fill-13" fill="#FFFFFF" points="28.764 136.7716 383.076 136.7716 383.076 28.9306 354.488 0.3436 0.177 0.3436 0.177 108.1846"></polygon>
                    <path d="M28.6161,136.9457 L383.2501,136.9457 L383.2501,28.8297 L354.6361,0.1697 L0.0021,0.1697 L0.0021,108.2857 L28.6161,136.9457 L28.6161,136.9457 Z M383.2501,136.9457 L354.6361,108.2857 L354.6361,0.1697" id="Stroke-14" stroke="#000000" stroke-width="3.463"></path>
                    <path d="M367.7235,136.8334 L339.1265,108.2164 M352.3165,136.8334 L323.7195,108.2164 M336.9045,136.8334 L308.3065,108.2164 M321.4965,136.8334 L292.8995,108.2164 M306.0845,136.8334 L277.4875,108.2164 M290.6755,136.8334 L262.0785,108.2164 M275.2645,136.8334 L246.6675,108.2164 M259.8565,136.8334 L231.2605,108.2164 M244.4435,136.8334 L215.8465,108.2164 M229.0365,136.8334 L200.4385,108.2164 M213.6235,136.8334 L185.0265,108.2164 M198.2165,136.8334 L169.6195,108.2164 M182.8025,136.8334 L154.2055,108.2164 M167.3955,136.8334 L138.7975,108.2164 M151.9835,136.8334 L123.3875,108.2164 M136.5755,136.8334 L107.9785,108.2164 M121.1635,136.8334 L92.5665,108.2164 M105.7565,136.8334 L77.1565,108.2164 M90.3435,136.8334 L61.7465,108.2164 M74.9365,136.8334 L46.3395,108.2164 M59.5255,136.8334 L30.9295,108.2164 M44.1195,136.8334 L15.5225,108.2164 M354.5395,61.9564 L383.1365,90.5734 M354.5395,77.3764 L383.1365,105.9924 M354.5395,92.7984 L383.1365,121.4154 M354.5395,15.6924 L383.1365,44.3084 M354.5395,31.1104 L383.1365,59.7284 M354.5395,46.5324 L383.1365,75.1494" id="Stroke-15" stroke="#000000" stroke-width="1.732"></path>
                    <path d="M0.1769,108.3219 L354.4879,108.3219" id="Stroke-16" stroke="#000000" stroke-width="3.463"></path>
                    <text id="REGOLA" font-family="ConduitITC-Bold, Conduit ITC" font-size="105" font-style="condensed" font-weight="bold" fill="#000000">
                        <tspan x="21" y="85">REGOLA</tspan>
                    </text>
                </g>
            </g>
        </g>
    </g>
</svg>