<?xml version="1.0" encoding="UTF-8" standalone="no"?>
<svg width="227px" height="95px" viewBox="0 0 227 95" version="1.1" xmlns="http://www.w3.org/2000/svg" xmlns:xlink="http://www.w3.org/1999/xlink">
    <!-- Generator: Sketch Beta 39 (31443) - http://www.bohemiancoding.com/sketch -->
    <title>logo</title>
    <desc>Created with Sketch Beta.</desc>
    <defs></defs>
    <g id="Page-1" stroke="none" stroke-width="1" fill="none" fill-rule="evenodd">
        <g id="logo">
            <path d="M132.3083,46.0546 C123.8683,46.0546 115.1363,51.8186 112.9303,60.3856 C110.6403,69.2816 117.7603,75.3336 125.8593,75.3336 C134.5493,75.3336 143.2093,69.9046 145.4573,60.5866 C147.0683,53.8736 142.1903,46.0546 132.3083,46.0546 M130.7173,52.4136 C136.0073,52.4226 137.7183,56.9676 136.8423,60.7106 C135.7903,65.2156 133.0273,69.1176 126.9943,69.1176 C122.0873,69.1176 120.4343,64.1766 121.4933,60.4666 C122.5403,56.7886 124.6693,52.4076 130.7173,52.4136" id="Fill-367" fill="#00558D"></path>
            <path d="M108.9272,75.1812 C108.9272,75.1812 102.0442,75.4822 98.5432,74.8262 C91.9032,73.5842 87.0812,69.4402 86.2552,64.0282 C85.0282,55.9932 93.2262,48.0762 104.5652,46.3462 C108.4002,45.7622 115.3752,45.8792 115.3752,45.8792 L113.8592,51.9062 C113.8592,51.9062 109.2882,51.9022 106.7692,52.2852 C99.3232,53.4202 94.9852,58.2072 95.7132,62.9762 C96.2022,66.1852 98.1082,68.4772 102.5532,69.2842 C104.6422,69.6602 109.7002,69.3862 109.7002,69.3862 L108.9272,75.1812 Z" id="Fill-369" fill="#00558D"></path>
            <polygon id="Fill-371" fill="#00558D" points="212.9818 75.3798 216.1548 53.4458 224.3098 53.4458 221.3568 75.3798"></polygon>
            <g id="Group-375" transform="translate(215.000000, 39.000000)" fill="#00558D">
                <path d="M11.9291,6.8431 C11.9291,10.1301 9.2691,12.7881 5.9831,12.7881 C2.7001,12.7881 0.0371,10.1301 0.0371,6.8431 C0.0371,3.5611 2.7001,0.8991 5.9831,0.8991 C9.2691,0.8991 11.9291,3.5611 11.9291,6.8431" id="Fill-373"></path>
            </g>
            <polygon id="Fill-376" fill="#00558D" points="169.3062 65.6237 173.2822 45.8927 181.3482 45.8927 174.4472 75.3907 164.4042 75.3907 158.0532 55.7297 153.7502 75.3907 145.6432 75.3907 152.5552 45.8927 162.6302 45.8927"></polygon>
            <path d="M192.6708,63.2593 L199.0298,53.0083 L200.4638,63.2593 L192.6708,63.2593 Z M202.1648,75.3903 L210.6628,75.3903 L205.4218,46.0163 L195.1438,46.0163 L176.6898,75.3903 L185.7758,75.3903 L189.4418,68.9353 L201.2628,68.9353 L202.1648,75.3903 Z" id="Fill-378" fill="#00558D"></path>
            <path d="M14.6607,40.7782 C15.0117,36.7502 17.6747,19.5552 37.7307,11.5742 C53.0677,5.4732 61.7937,11.9152 65.5877,14.2502 L69.2207,10.8772 L71.2877,24.0922 L58.6887,20.6612 L62.3197,17.2892 C60.5567,14.8232 51.2277,5.9042 41.3697,13.1742 C41.3697,13.1742 32.1107,19.9782 31.5377,38.6692 C34.5727,38.4742 37.6377,38.3622 40.7487,38.3622 C55.5327,38.3622 68.8517,40.5812 79.8337,44.4832 L85.8247,1.7592 L12.4827,1.7592 L5.7777,49.5862 L5.8207,49.5862 C6.3757,45.7572 6.7777,42.9452 6.8167,42.5782 C9.5897,41.8512 11.8757,41.3072 14.6607,40.7782" id="Fill-380" fill="#9ACFF2"></path>
            <path d="M40.7483,38.3622 C37.6383,38.3622 34.5733,38.4742 31.5373,38.6692 C32.1113,19.9782 41.3693,13.1742 41.3693,13.1742 C51.2273,5.9052 60.5573,14.8222 62.3193,17.2902 L58.6893,20.6612 L71.2873,24.0922 L69.2203,10.8762 L65.5883,14.2502 C61.7933,11.9152 53.0673,5.4742 37.7313,11.5742 C17.6743,19.5552 15.0113,36.7502 14.6603,40.7782 C11.8753,41.3072 9.5903,41.8512 6.8173,42.5782 C6.7783,42.9452 6.3753,45.7572 5.8203,49.5862 C4.4323,59.1772 2.0853,75.1622 2.0853,75.1622 L75.5633,75.1622 C75.5633,75.1622 79.7043,45.6332 79.9143,44.5102 C79.8883,44.5012 79.8603,44.4922 79.8343,44.4832 C68.8513,40.5812 55.5323,38.3622 40.7483,38.3622" id="Fill-382" fill="#00558D"></path>
            <path d="M85.8174,1.8271 C85.6554,2.9951 75.5414,74.2571 75.4194,75.1421 L2.1894,75.1421 C2.3544,73.9711 12.5964,2.7121 12.7264,1.8271 L85.8174,1.8271 Z M87.1014,0.7791 L11.8154,0.7791 L0.9804,76.1891 L76.3314,76.1891 L87.0214,0.7791 L87.1014,0.7791 Z" id="Fill-384" fill="#FFFFFF"></path>
            <path d="M65.3685,48.0233 C65.5445,48.7103 64.5675,54.0313 63.1155,56.5883 C62.0265,58.5063 61.3995,59.0713 60.4095,60.1183 C60.3425,60.1923 60.2685,60.2633 60.1985,60.3363 C60.1345,60.4013 60.0725,60.4633 60.0055,60.5253 C58.6575,61.8793 56.9685,63.0833 54.9105,64.0383 C49.0045,66.6423 41.4415,63.8853 41.4415,63.8853 C41.3865,63.8673 41.3395,63.8453 41.2845,63.8253 C34.9505,61.9443 30.8725,56.5153 29.4805,51.3943 C29.2685,50.7903 28.9525,50.0603 28.8705,49.6033 L32.9275,48.7713 L21.5875,40.9813 L16.3345,54.5833 L19.8575,52.5283 C20.8255,54.8993 28.4845,66.8593 41.5185,67.5213 C48.9165,67.8963 54.3175,66.0483 58.2415,63.3763 C66.4025,57.8153 68.1445,48.6993 68.1445,48.6993 L65.3685,48.0233 Z" id="Fill-386" fill="#9ACFF2"></path>
            <g id="Group-390" transform="translate(0.000000, 86.000000)" fill="#00558D">
                <path d="M4.6967,2.7881 C4.6967,2.0181 4.2327,1.6251 3.5777,1.6251 C2.1687,1.6251 1.5307,3.0501 1.5307,4.2491 C1.5307,5.1061 1.9507,5.8581 2.9477,5.8581 C3.7087,5.8581 4.2947,5.2721 4.4167,4.6161 L5.7897,4.6161 C5.2297,6.3561 4.2857,7.0121 2.9297,7.0121 C1.1807,7.0121 0.1577,6.0061 0.1577,4.2491 C0.1577,2.2281 1.4607,0.4701 3.5687,0.4701 C5.0117,0.4701 6.1047,1.2661 6.0697,2.7881 L4.6967,2.7881 Z" id="Fill-388"></path>
            </g>
            <g id="Group-393" transform="translate(6.000000, 88.000000)" fill="#00558D">
                <path d="M2.5349,4.0502 C3.4619,4.0502 3.8639,2.9132 3.8639,2.1522 C3.8639,1.5492 3.6019,1.1552 2.9549,1.1552 C2.0449,1.1552 1.6429,2.2752 1.6429,3.0362 C1.6429,3.5692 1.9489,4.0502 2.5349,4.0502 M2.9979,0.2192 C4.2409,0.2192 5.1059,0.8322 5.1059,2.1352 C5.1059,3.7262 4.1179,4.9862 2.4739,4.9862 C1.2149,4.9862 0.4009,4.3302 0.4009,3.0362 C0.4009,1.5052 1.3889,0.2192 2.9979,0.2192" id="Fill-391"></path>
            </g>
            <g id="Group-396" transform="translate(11.000000, 88.000000)" fill="#00558D">
                <path d="M1.3381,0.342 L2.5271,0.342 L2.3881,0.972 L2.4051,0.972 C2.8071,0.473 3.3411,0.22 3.9881,0.22 C4.8451,0.22 5.3091,0.648 5.3091,1.435 C5.3091,1.619 5.2131,2.056 5.1771,2.214 L4.6181,4.864 L3.3761,4.864 L3.9271,2.214 C3.9621,2.083 4.0051,1.786 4.0051,1.663 C4.0051,1.392 3.6991,1.2 3.4111,1.2 C2.6581,1.2 2.2741,1.829 2.1431,2.459 L1.6351,4.864 L0.3931,4.864 L1.3381,0.342 Z" id="Fill-394"></path>
            </g>
            <g id="Group-399" transform="translate(16.000000, 88.000000)" fill="#00558D">
                <path d="M3.9197,1.6628 C3.9107,1.2778 3.6927,1.0508 3.2197,1.0508 C2.7827,1.0508 2.4587,1.1728 2.4587,1.4968 C2.4587,1.6978 2.6077,1.8208 3.0277,1.9518 L3.6487,2.1528 C4.3127,2.3708 4.8387,2.6858 4.8387,3.4468 C4.8387,4.5668 3.7277,4.9868 2.6867,4.9868 C1.8027,4.9868 0.7627,4.6358 0.7627,3.5778 L0.7627,3.3948 L1.9167,3.3948 L1.9167,3.5428 C1.9167,3.9548 2.3807,4.1548 2.8087,4.1548 C3.1847,4.1548 3.5957,4.0248 3.5957,3.6128 C3.5957,3.2978 3.4207,3.2018 3.1497,3.1148 L2.1967,2.8088 C1.5757,2.6068 1.2167,2.3628 1.2167,1.6548 C1.2167,0.5868 2.3457,0.2198 3.2197,0.2198 C4.2087,0.2198 5.0917,0.4998 5.0737,1.6628 L3.9197,1.6628 Z" id="Fill-397"></path>
            </g>
            <g id="Group-402" transform="translate(21.000000, 88.000000)" fill="#00558D">
                <path d="M2.6007,4.0502 C3.5277,4.0502 3.9297,2.9132 3.9297,2.1522 C3.9297,1.5492 3.6677,1.1552 3.0207,1.1552 C2.1107,1.1552 1.7087,2.2752 1.7087,3.0362 C1.7087,3.5692 2.0147,4.0502 2.6007,4.0502 M3.0637,0.2192 C4.3057,0.2192 5.1717,0.8322 5.1717,2.1352 C5.1717,3.7262 4.1837,4.9862 2.5397,4.9862 C1.2807,4.9862 0.4667,4.3302 0.4667,3.0362 C0.4667,1.5052 1.4547,0.2192 3.0637,0.2192" id="Fill-400"></path>
            </g>
            <g id="Group-405" transform="translate(26.000000, 88.000000)" fill="#00558D">
                <path d="M1.404,0.342 L2.585,0.342 L2.401,1.155 L2.418,1.173 C2.698,0.552 3.31,0.22 3.975,0.22 C4.107,0.22 4.229,0.228 4.36,0.246 L4.107,1.453 C3.932,1.418 3.757,1.374 3.582,1.374 C2.629,1.374 2.287,2.091 2.121,2.861 L1.701,4.864 L0.459,4.864 L1.404,0.342 Z" id="Fill-403"></path>
            </g>
            <g id="Group-408" transform="translate(29.000000, 88.000000)" fill="#00558D">
                <polygon id="Fill-406" points="0.9306 3.9457 3.7646 1.2777 1.5866 1.2777 1.7876 0.3417 5.5836 0.3417 5.3916 1.2607 2.5486 3.9277 5.0416 3.9277 4.8406 4.8637 0.7386 4.8637"></polygon>
            </g>
            <g id="Group-411" transform="translate(34.000000, 86.000000)" fill="#00558D">
                <path d="M2.804,1.6425 L1.553,1.6425 L1.781,0.6195 L3.031,0.6195 L2.804,1.6425 Z M1.413,2.3425 L2.664,2.3425 L1.702,6.8645 L0.451,6.8645 L1.413,2.3425 Z" id="Fill-409"></path>
            </g>
            <g id="Group-414" transform="translate(36.000000, 88.000000)" fill="#00558D">
                <path d="M3.0424,4.0502 C3.9694,4.0502 4.3714,2.9132 4.3714,2.1522 C4.3714,1.5492 4.1094,1.1552 3.4624,1.1552 C2.5524,1.1552 2.1504,2.2752 2.1504,3.0362 C2.1504,3.5692 2.4564,4.0502 3.0424,4.0502 M3.5054,0.2192 C4.7484,0.2192 5.6134,0.8322 5.6134,2.1352 C5.6134,3.7262 4.6254,4.9862 2.9814,4.9862 C1.7224,4.9862 0.9084,4.3302 0.9084,3.0362 C0.9084,1.5052 1.8964,0.2192 3.5054,0.2192" id="Fill-412"></path>
            </g>
            <g id="Group-417" transform="translate(44.000000, 86.000000)" fill="#00558D">
                <polygon id="Fill-415" points="1.7225 0.6193 3.1395 0.6193 4.8365 5.0623 4.8535 5.0623 5.7455 0.6193 7.0055 0.6193 5.6845 6.8633 4.3115 6.8633 2.5975 2.4823 2.5795 2.4823 1.6875 6.8633 0.4025 6.8633"></polygon>
            </g>
            <g id="Group-420" transform="translate(50.000000, 88.000000)" fill="#00558D">
                <path d="M4.0648,2.6949 C3.7498,2.8789 3.3738,2.8869 3.0158,2.9139 C2.5428,2.9659 2.0968,3.0799 2.0968,3.6479 C2.0968,3.9889 2.4208,4.1549 2.7788,4.1549 C3.5488,4.1549 3.8028,3.6219 3.9428,3.1319 L4.0648,2.6949 Z M1.4408,1.7159 C1.5988,0.5779 2.5608,0.2199 3.5838,0.2199 C4.3888,0.2199 5.4818,0.3949 5.4638,1.4089 C5.4638,1.6019 5.4208,1.8899 5.3678,2.1699 L4.9658,3.9889 C4.9218,4.1469 4.9048,4.4269 4.9048,4.6009 C4.9048,4.6799 4.9218,4.7849 4.9488,4.8639 L3.7058,4.8639 L3.7058,4.4179 C3.3648,4.8029 2.8318,4.9869 2.3248,4.9869 C1.3358,4.9869 0.8548,4.4269 0.8548,3.7969 C0.8548,2.9309 1.5108,2.3889 2.5868,2.2569 C3.7588,2.1179 4.3098,2.1789 4.3098,1.6019 C4.3098,1.1559 3.8378,1.0499 3.5228,1.0499 C3.0768,1.0499 2.6828,1.2609 2.6048,1.7159 L1.4408,1.7159 Z" id="Fill-418"></path>
            </g>
            <g id="Group-423" transform="translate(55.000000, 88.000000)" fill="#00558D">
                <polygon id="Fill-421" points="0.6817 3.9457 3.5157 1.2777 1.3377 1.2777 1.5387 0.3417 5.3347 0.3417 5.1427 1.2607 2.2997 3.9277 4.7927 3.9277 4.5917 4.8637 0.4897 4.8637"></polygon>
            </g>
            <g id="Group-426" transform="translate(60.000000, 86.000000)" fill="#00558D">
                <path d="M2.5551,1.6425 L1.3041,1.6425 L1.5321,0.6195 L2.7821,0.6195 L2.5551,1.6425 Z M1.1641,2.3425 L2.4151,2.3425 L1.4531,6.8645 L0.2021,6.8645 L1.1641,2.3425 Z" id="Fill-424"></path>
            </g>
            <g id="Group-429" transform="translate(62.000000, 88.000000)" fill="#00558D">
                <path d="M2.7935,4.0502 C3.7205,4.0502 4.1225,2.9132 4.1225,2.1522 C4.1225,1.5492 3.8605,1.1552 3.2135,1.1552 C2.3035,1.1552 1.9015,2.2752 1.9015,3.0362 C1.9015,3.5692 2.2075,4.0502 2.7935,4.0502 M3.2565,0.2192 C4.4995,0.2192 5.3645,0.8322 5.3645,2.1352 C5.3645,3.7262 4.3765,4.9862 2.7325,4.9862 C1.4735,4.9862 0.6595,4.3302 0.6595,3.0362 C0.6595,1.5052 1.6475,0.2192 3.2565,0.2192" id="Fill-427"></path>
            </g>
            <g id="Group-432" transform="translate(67.000000, 88.000000)" fill="#00558D">
                <path d="M1.5967,0.342 L2.7857,0.342 L2.6467,0.972 L2.6637,0.972 C3.0657,0.473 3.5997,0.22 4.2467,0.22 C5.1037,0.22 5.5677,0.648 5.5677,1.435 C5.5677,1.619 5.4717,2.056 5.4357,2.214 L4.8767,4.864 L3.6347,4.864 L4.1857,2.214 C4.2207,2.083 4.2637,1.786 4.2637,1.663 C4.2637,1.392 3.9577,1.2 3.6697,1.2 C2.9167,1.2 2.5327,1.829 2.4017,2.459 L1.8937,4.864 L0.6517,4.864 L1.5967,0.342 Z" id="Fill-430"></path>
            </g>
            <g id="Group-435" transform="translate(73.000000, 88.000000)" fill="#00558D">
                <path d="M3.2483,2.6949 C2.9333,2.8789 2.5573,2.8869 2.1983,2.9139 C1.7263,2.9659 1.2803,3.0799 1.2803,3.6479 C1.2803,3.9889 1.6043,4.1549 1.9623,4.1549 C2.7323,4.1549 2.9863,3.6219 3.1263,3.1319 L3.2483,2.6949 Z M0.6243,1.7159 C0.7823,0.5779 1.7443,0.2199 2.7673,0.2199 C3.5723,0.2199 4.6653,0.3949 4.6473,1.4089 C4.6473,1.6019 4.6043,1.8899 4.5513,2.1699 L4.1493,3.9889 C4.1053,4.1469 4.0873,4.4269 4.0873,4.6009 C4.0873,4.6799 4.1053,4.7849 4.1323,4.8639 L2.8893,4.8639 L2.8893,4.4179 C2.5483,4.8029 2.0153,4.9869 1.5083,4.9869 C0.5193,4.9869 0.0383,4.4269 0.0383,3.7969 C0.0383,2.9309 0.6943,2.3889 1.7703,2.2569 C2.9423,2.1179 3.4933,2.1789 3.4933,1.6019 C3.4933,1.1559 3.0213,1.0499 2.7063,1.0499 C2.2603,1.0499 1.8663,1.2609 1.7883,1.7159 L0.6243,1.7159 Z" id="Fill-433"></path>
            </g>
            <g id="Group-438" transform="translate(78.000000, 86.000000)" fill="#00558D">
                <polygon id="Fill-436" points="1.3433 0.6193 2.5853 0.6193 1.2563 6.8633 0.0143 6.8633"></polygon>
            </g>
            <g id="Group-441" transform="translate(80.000000, 88.000000)" fill="#00558D">
                <path d="M3.8731,2.1176 C3.8731,1.6546 3.7591,1.1556 3.0341,1.1556 C2.3341,1.1556 1.9841,1.6106 1.8001,2.1176 L3.8731,2.1176 Z M1.6691,2.9046 C1.6601,3.0186 1.6601,3.0966 1.6601,3.1666 C1.6601,3.6916 1.9841,4.0496 2.6571,4.0496 C3.1561,4.0496 3.4011,3.7176 3.5841,3.4296 L4.8261,3.4296 C4.4331,4.4436 3.7861,4.9866 2.4821,4.9866 C1.2751,4.9866 0.4711,4.2956 0.4711,3.0096 C0.4711,1.5666 1.4241,0.2196 2.9631,0.2196 C4.2231,0.2196 5.0711,0.8846 5.0711,2.1966 C5.0711,2.4416 5.0451,2.6856 5.0011,2.9046 L1.6691,2.9046 Z" id="Fill-439"></path>
            </g>
            <g id="Group-444" transform="translate(87.000000, 88.000000)" fill="#00558D">
                <path d="M2.2941,3.071 C2.2941,3.648 2.5821,4.05 3.1861,4.05 C4.1221,4.05 4.5421,2.957 4.5421,2.161 C4.5421,1.619 4.2441,1.156 3.6581,1.156 C2.7311,1.156 2.2941,2.293 2.2941,3.071 L2.2941,3.071 Z M1.6211,0.342 L2.8191,0.342 L2.6961,0.902 L2.7141,0.92 C2.9941,0.43 3.5181,0.22 4.0691,0.22 C5.1541,0.22 5.7841,0.92 5.7841,2.004 C5.7841,3.491 4.9961,4.986 3.3261,4.986 C2.8011,4.986 2.2501,4.759 2.0581,4.26 L2.0321,4.26 L1.5591,6.456 L0.3171,6.456 L1.6211,0.342 Z" id="Fill-442"></path>
            </g>
            <g id="Group-447" transform="translate(93.000000, 88.000000)" fill="#00558D">
                <path d="M3.6658,2.1176 C3.6658,1.6546 3.5518,1.1556 2.8258,1.1556 C2.1268,1.1556 1.7768,1.6106 1.5928,2.1176 L3.6658,2.1176 Z M1.4618,2.9046 C1.4528,3.0186 1.4528,3.0966 1.4528,3.1666 C1.4528,3.6916 1.7768,4.0496 2.4498,4.0496 C2.9488,4.0496 3.1928,3.7176 3.3768,3.4296 L4.6188,3.4296 C4.2258,4.4436 3.5788,4.9866 2.2748,4.9866 C1.0678,4.9866 0.2638,4.2956 0.2638,3.0096 C0.2638,1.5666 1.2168,0.2196 2.7558,0.2196 C4.0158,0.2196 4.8638,0.8846 4.8638,2.1966 C4.8638,2.4416 4.8378,2.6856 4.7938,2.9046 L1.4618,2.9046 Z" id="Fill-445"></path>
            </g>
            <g id="Group-450" transform="translate(98.000000, 88.000000)" fill="#00558D">
                <path d="M1.0347,0.342 L2.2157,0.342 L2.0317,1.155 L2.0487,1.173 C2.3287,0.552 2.9407,0.22 3.6057,0.22 C3.7377,0.22 3.8597,0.228 3.9907,0.246 L3.7377,1.453 C3.5627,1.418 3.3877,1.374 3.2127,1.374 C2.2597,1.374 1.9177,2.091 1.7517,2.861 L1.3317,4.864 L0.0897,4.864 L1.0347,0.342 Z" id="Fill-448"></path>
            </g>
            <g id="Group-453" transform="translate(103.000000, 86.000000)" fill="#00558D">
                <path d="M3.2752,1.6425 L2.0242,1.6425 L2.2522,0.6195 L3.5022,0.6195 L3.2752,1.6425 Z M1.8842,2.3425 L3.1352,2.3425 L2.1732,6.8645 L0.9222,6.8645 L1.8842,2.3425 Z" id="Fill-451"></path>
            </g>
            <g id="Group-456" transform="translate(106.000000, 86.000000)" fill="#00558D">
                <polygon id="Fill-454" points="1.5165 0.6193 2.7585 0.6193 1.4295 6.8633 0.1875 6.8633"></polygon>
            </g>
            <g id="Group-459" transform="translate(110.000000, 86.000000)" fill="#00558D">
                <path d="M3.0514,3.4443 L4.3194,3.4443 C5.0464,3.4353 5.7364,3.1553 5.7364,2.4563 C5.7364,1.7823 5.2644,1.6863 4.7224,1.6863 L3.4184,1.6863 L3.0514,3.4443 Z M2.2644,0.6193 L5.2464,0.6193 C6.3754,0.6013 7.1094,1.0473 7.1094,2.2543 C7.1094,3.1033 6.5154,3.8113 5.6754,3.9343 L5.6754,3.9513 C6.1914,4.1093 6.3224,4.5643 6.3224,5.0533 C6.3224,5.3333 6.2794,5.7533 6.2794,6.1383 C6.2794,6.4173 6.2964,6.6803 6.3664,6.8633 L5.0284,6.8633 C4.9934,6.7153 4.9664,6.5833 4.9664,6.4443 C4.9664,6.0243 5.0364,5.5953 5.0364,5.1763 C5.0364,4.5723 4.6784,4.4233 4.1364,4.4233 L2.8414,4.4233 L2.3254,6.8633 L0.9524,6.8633 L2.2644,0.6193 Z" id="Fill-457"></path>
            </g>
            <g id="Group-462" transform="translate(117.000000, 88.000000)" fill="#00558D">
                <path d="M3.7899,2.1176 C3.7899,1.6546 3.6759,1.1556 2.9499,1.1556 C2.2509,1.1556 1.9009,1.6106 1.7169,2.1176 L3.7899,2.1176 Z M1.5859,2.9046 C1.5779,3.0186 1.5779,3.0966 1.5779,3.1666 C1.5779,3.6916 1.9009,4.0496 2.5739,4.0496 C3.0729,4.0496 3.3169,3.7176 3.5019,3.4296 L4.7429,3.4296 C4.3499,4.4436 3.7029,4.9866 2.3989,4.9866 C1.1919,4.9866 0.3879,4.2956 0.3879,3.0096 C0.3879,1.5666 1.3409,0.2196 2.8799,0.2196 C4.1399,0.2196 4.9879,0.8846 4.9879,2.1966 C4.9879,2.4416 4.9619,2.6856 4.9179,2.9046 L1.5859,2.9046 Z" id="Fill-460"></path>
            </g>
            <g id="Group-465" transform="translate(122.000000, 88.000000)" fill="#00558D">
                <path d="M3.748,1.9077 C3.748,1.3737 3.459,1.1557 2.917,1.1557 C1.972,1.1557 1.649,2.2927 1.649,3.0707 C1.649,3.6137 1.876,4.0507 2.505,4.0507 C3.057,4.0507 3.372,3.6567 3.511,3.2107 L4.753,3.2107 C4.377,4.3387 3.59,4.9867 2.419,4.9867 C1.159,4.9867 0.407,4.3657 0.407,3.0447 C0.407,1.5057 1.333,0.2197 2.961,0.2197 C4.062,0.2197 4.963,0.7097 4.99,1.9077 L3.748,1.9077 Z" id="Fill-463"></path>
            </g>
            <g id="Group-468" transform="translate(127.000000, 88.000000)" fill="#00558D">
                <path d="M4.3619,4.8638 L3.1719,4.8638 L3.3119,4.2338 L3.2949,4.2338 C2.8919,4.7328 2.3589,4.9868 1.7119,4.9868 C0.8549,4.9868 0.3909,4.5578 0.3909,3.7708 C0.3909,3.5868 0.4869,3.1498 0.5229,2.9918 L1.0819,0.3418 L2.3239,0.3418 L1.7729,2.9918 C1.7379,3.1238 1.6949,3.4208 1.6949,3.5428 C1.6949,3.8148 1.9999,4.0068 2.2889,4.0068 C3.0409,4.0068 3.4259,3.3768 3.5569,2.7478 L4.0639,0.3418 L5.3059,0.3418 L4.3619,4.8638 Z" id="Fill-466"></path>
            </g>
            <g id="Group-471" transform="translate(132.000000, 88.000000)" fill="#00558D">
                <path d="M1.984,3.071 C1.984,3.648 2.273,4.05 2.876,4.05 C3.812,4.05 4.232,2.957 4.232,2.161 C4.232,1.619 3.935,1.156 3.349,1.156 C2.421,1.156 1.984,2.293 1.984,3.071 L1.984,3.071 Z M1.311,0.342 L2.509,0.342 L2.387,0.902 L2.404,0.92 C2.684,0.43 3.209,0.22 3.759,0.22 C4.844,0.22 5.474,0.92 5.474,2.004 C5.474,3.491 4.687,4.986 3.016,4.986 C2.492,4.986 1.94,4.759 1.748,4.26 L1.722,4.26 L1.249,6.456 L0.007,6.456 L1.311,0.342 Z" id="Fill-469"></path>
            </g>
            <g id="Group-474" transform="translate(137.000000, 88.000000)" fill="#00558D">
                <path d="M4.3559,2.1176 C4.3559,1.6546 4.2419,1.1556 3.5159,1.1556 C2.8169,1.1556 2.4659,1.6106 2.2829,2.1176 L4.3559,2.1176 Z M2.1519,2.9046 C2.1429,3.0186 2.1429,3.0966 2.1429,3.1666 C2.1429,3.6916 2.4659,4.0496 3.1399,4.0496 C3.6379,4.0496 3.8829,3.7176 4.0669,3.4296 L5.3089,3.4296 C4.9159,4.4436 4.2679,4.9866 2.9649,4.9866 C1.7579,4.9866 0.9539,4.2956 0.9539,3.0096 C0.9539,1.5666 1.9069,0.2196 3.4459,0.2196 C4.7049,0.2196 5.5539,0.8846 5.5539,2.1966 C5.5539,2.4416 5.5279,2.6856 5.4839,2.9046 L2.1519,2.9046 Z" id="Fill-472"></path>
            </g>
            <g id="Group-477" transform="translate(142.000000, 88.000000)" fill="#00558D">
                <path d="M1.7249,0.342 L2.9049,0.342 L2.7209,1.155 L2.7389,1.173 C3.0189,0.552 3.6309,0.22 4.2959,0.22 C4.4269,0.22 4.5489,0.228 4.6809,0.246 L4.4269,1.453 C4.2519,1.418 4.0769,1.374 3.9019,1.374 C2.9489,1.374 2.6079,2.091 2.4419,2.861 L2.0219,4.864 L0.7799,4.864 L1.7249,0.342 Z" id="Fill-475"></path>
            </g>
            <g id="Group-480" transform="translate(146.000000, 88.000000)" fill="#00558D">
                <path d="M2.5076,4.0502 C3.4356,4.0502 3.8366,2.9132 3.8366,2.1522 C3.8366,1.5492 3.5746,1.1552 2.9276,1.1552 C2.0176,1.1552 1.6156,2.2752 1.6156,3.0362 C1.6156,3.5692 1.9216,4.0502 2.5076,4.0502 M2.9716,0.2192 C4.2126,0.2192 5.0796,0.8322 5.0796,2.1352 C5.0796,3.7262 4.0906,4.9862 2.4466,4.9862 C1.1876,4.9862 0.3736,4.3302 0.3736,3.0362 C0.3736,1.5052 1.3626,0.2192 2.9716,0.2192" id="Fill-478"></path>
            </g>
            <g id="Group-483" transform="translate(153.000000, 86.000000)" fill="#00558D">
                <path d="M2.2315,5.0448 C2.2315,5.5868 2.5295,6.0508 3.1155,6.0508 C4.0425,6.0508 4.4795,4.9138 4.4795,4.1348 C4.4795,3.5578 4.1905,3.1558 3.5875,3.1558 C2.6515,3.1558 2.2315,4.2488 2.2315,5.0448 L2.2315,5.0448 Z M4.0855,6.3038 L4.0685,6.2868 C3.7885,6.7768 3.2635,6.9868 2.7125,6.9868 C1.6285,6.9868 0.9895,6.2868 0.9895,5.2028 C0.9895,3.7158 1.7855,2.2198 3.4565,2.2198 C3.9805,2.2198 4.5315,2.4468 4.7245,2.9458 L4.7415,2.9458 L5.2405,0.6198 L6.4825,0.6198 L5.1615,6.8638 L3.9635,6.8638 L4.0855,6.3038 Z" id="Fill-481"></path>
            </g>
            <g id="Group-486" transform="translate(159.000000, 88.000000)" fill="#00558D">
                <path d="M3.7342,2.1176 C3.7342,1.6546 3.6202,1.1556 2.8942,1.1556 C2.1952,1.1556 1.8452,1.6106 1.6612,2.1176 L3.7342,2.1176 Z M1.5302,2.9046 C1.5212,3.0186 1.5212,3.0966 1.5212,3.1666 C1.5212,3.6916 1.8452,4.0496 2.5182,4.0496 C3.0172,4.0496 3.2612,3.7176 3.4462,3.4296 L4.6872,3.4296 C4.2942,4.4436 3.6472,4.9866 2.3432,4.9866 C1.1362,4.9866 0.3322,4.2956 0.3322,3.0096 C0.3322,1.5666 1.2852,0.2196 2.8242,0.2196 C4.0842,0.2196 4.9322,0.8846 4.9322,2.1966 C4.9322,2.4416 4.9062,2.6856 4.8622,2.9046 L1.5302,2.9046 Z" id="Fill-484"></path>
            </g>
            <g id="Group-489" transform="translate(164.000000, 88.000000)" fill="#00558D">
                <path d="M1.6539,2.8611 C1.6539,3.3941 1.9159,3.8581 2.4939,3.8581 C3.3859,3.8581 3.8149,2.9051 3.8149,2.1351 C3.8149,1.5661 3.5259,1.1551 2.9219,1.1551 C2.0919,1.1551 1.6539,2.1351 1.6539,2.8611 L1.6539,2.8611 Z M4.5229,4.6271 C4.2169,6.0011 3.5259,6.5781 2.0299,6.5781 C1.1119,6.5781 0.0969,6.1851 0.0969,5.1001 L1.3389,5.1001 C1.3219,5.5551 1.7499,5.7471 2.1529,5.7471 C2.9399,5.7471 3.1669,5.0561 3.4119,4.1731 L3.3949,4.1551 C3.0709,4.5841 2.6599,4.7931 2.1529,4.7931 C1.0769,4.7931 0.4119,4.0591 0.4119,2.9481 C0.4119,1.6281 1.2439,0.2201 2.6949,0.2201 C3.3169,0.2201 3.8229,0.4381 4.0769,1.0331 L4.0939,1.0331 L4.2349,0.3421 L5.4239,0.3421 L4.5229,4.6271 Z" id="Fill-487"></path>
            </g>
            <g id="Group-492" transform="translate(169.000000, 86.000000)" fill="#00558D">
                <polygon id="Fill-490" points="1.8307 0.6193 3.0727 0.6193 1.7427 6.8633 0.5017 6.8633"></polygon>
            </g>
            <g id="Group-495" transform="translate(171.000000, 86.000000)" fill="#00558D">
                <path d="M3.1178,1.6425 L1.8678,1.6425 L2.0948,0.6195 L3.3458,0.6195 L3.1178,1.6425 Z M1.7268,2.3425 L2.9778,2.3425 L2.0168,6.8645 L0.7658,6.8645 L1.7268,2.3425 Z" id="Fill-493"></path>
            </g>
            <g id="Group-498" transform="translate(176.000000, 86.000000)" fill="#00558D">
                <polygon id="Fill-496" points="1.8516 0.6193 3.2336 0.6193 1.9126 6.8633 0.5306 6.8633"></polygon>
            </g>
            <g id="Group-501" transform="translate(179.000000, 88.000000)" fill="#00558D">
                <path d="M0.9934,0.342 L2.1824,0.342 L2.0434,0.981 L2.0604,0.981 C2.4364,0.473 2.9964,0.22 3.6434,0.22 C4.1854,0.22 4.6314,0.465 4.7364,1.007 C5.0424,0.543 5.6894,0.22 6.2674,0.22 C6.9754,0.22 7.6404,0.587 7.6404,1.366 C7.6404,1.645 7.5614,1.934 7.5094,2.205 L6.9494,4.864 L5.7074,4.864 L6.3024,2.004 C6.3194,1.873 6.3364,1.768 6.3364,1.68 C6.3364,1.409 6.1094,1.2 5.7954,1.2 C5.1304,1.2 4.7544,1.89 4.6314,2.441 L4.1244,4.864 L2.8734,4.864 L3.4684,2.004 C3.4864,1.873 3.5034,1.768 3.5034,1.68 C3.5034,1.409 3.2764,1.2 2.9614,1.2 C2.2964,1.2 1.9204,1.89 1.7984,2.441 L1.2914,4.864 L0.0484,4.864 L0.9934,0.342 Z" id="Fill-499"></path>
            </g>
            <g id="Group-504" transform="translate(186.000000, 86.000000)" fill="#00558D">
                <path d="M2.5803,5.0973 C2.5803,5.6483 2.9123,6.0503 3.4813,6.0503 C4.4163,6.0503 4.8113,4.9393 4.8113,4.1613 C4.8113,3.5923 4.5653,3.1553 3.9263,3.1553 C2.9563,3.1553 2.5803,4.2923 2.5803,5.0973 L2.5803,5.0973 Z M2.2913,0.6193 L3.5333,0.6193 L3.0703,2.8233 L3.0873,2.8233 C3.4723,2.4033 3.8303,2.2193 4.4253,2.2193 C5.5713,2.2193 6.0523,3.0943 6.0523,4.1443 C6.0523,5.5433 5.2473,6.9863 3.7083,6.9863 C3.0873,6.9863 2.5093,6.7853 2.2913,6.1553 L2.2743,6.1553 L2.1253,6.8633 L0.9803,6.8633 L2.2913,0.6193 Z" id="Fill-502"></path>
            </g>
            <g id="Group-507" transform="translate(192.000000, 88.000000)" fill="#00558D">
                <path d="M3.5753,2.6949 C3.2603,2.8789 2.8843,2.8869 2.5263,2.9139 C2.0543,2.9659 1.6073,3.0799 1.6073,3.6479 C1.6073,3.9889 1.9303,4.1549 2.2893,4.1549 C3.0603,4.1549 3.3133,3.6219 3.4533,3.1319 L3.5753,2.6949 Z M0.9513,1.7159 C1.1093,0.5779 2.0713,0.2199 3.0943,0.2199 C3.8993,0.2199 4.9923,0.3949 4.9753,1.4089 C4.9753,1.6019 4.9313,1.8899 4.8793,2.1699 L4.4763,3.9889 C4.4323,4.1469 4.4153,4.4269 4.4153,4.6009 C4.4153,4.6799 4.4323,4.7849 4.4593,4.8639 L3.2173,4.8639 L3.2173,4.4179 C2.8753,4.8029 2.3423,4.9869 1.8353,4.9869 C0.8463,4.9869 0.3653,4.4269 0.3653,3.7969 C0.3653,2.9309 1.0213,2.3889 2.0973,2.2569 C3.2693,2.1179 3.8203,2.1789 3.8203,1.6019 C3.8203,1.1559 3.3483,1.0499 3.0333,1.0499 C2.5873,1.0499 2.1933,1.2609 2.1153,1.7159 L0.9513,1.7159 Z" id="Fill-505"></path>
            </g>
            <g id="Group-510" transform="translate(197.000000, 86.000000)" fill="#00558D">
                <polygon id="Fill-508" points="1.6705 0.6193 2.9125 0.6193 1.5825 6.8633 0.3415 6.8633"></polygon>
            </g>
            <g id="Group-513" transform="translate(199.000000, 86.000000)" fill="#00558D">
                <polygon id="Fill-511" points="1.9346 0.6193 3.1776 0.6193 1.8476 6.8633 0.6056 6.8633"></polygon>
            </g>
            <g id="Group-516" transform="translate(201.000000, 88.000000)" fill="#00558D">
                <path d="M4.1234,2.6949 C3.8084,2.8789 3.4324,2.8869 3.0734,2.9139 C2.6014,2.9659 2.1554,3.0799 2.1554,3.6479 C2.1554,3.9889 2.4784,4.1549 2.8374,4.1549 C3.6074,4.1549 3.8614,3.6219 4.0014,3.1319 L4.1234,2.6949 Z M1.4994,1.7159 C1.6574,0.5779 2.6194,0.2199 3.6424,0.2199 C4.4474,0.2199 5.5394,0.3949 5.5224,1.4089 C5.5224,1.6019 5.4784,1.8899 5.4264,2.1699 L5.0244,3.9889 C4.9804,4.1469 4.9634,4.4269 4.9634,4.6009 C4.9634,4.6799 4.9804,4.7849 5.0064,4.8639 L3.7644,4.8639 L3.7644,4.4179 C3.4244,4.8029 2.8904,4.9869 2.3824,4.9869 C1.3944,4.9869 0.9134,4.4269 0.9134,3.7969 C0.9134,2.9309 1.5694,2.3889 2.6454,2.2569 C3.8174,2.1179 4.3674,2.1789 4.3674,1.6019 C4.3674,1.1559 3.8964,1.0499 3.5814,1.0499 C3.1344,1.0499 2.7414,1.2609 2.6624,1.7159 L1.4994,1.7159 Z" id="Fill-514"></path>
            </g>
            <g id="Group-519" transform="translate(206.000000, 88.000000)" fill="#00558D">
                <path d="M2.384,2.8611 C2.384,3.3941 2.646,3.8581 3.224,3.8581 C4.116,3.8581 4.545,2.9051 4.545,2.1351 C4.545,1.5661 4.256,1.1551 3.652,1.1551 C2.822,1.1551 2.384,2.1351 2.384,2.8611 L2.384,2.8611 Z M5.253,4.6271 C4.947,6.0011 4.256,6.5781 2.76,6.5781 C1.842,6.5781 0.827,6.1851 0.827,5.1001 L2.069,5.1001 C2.052,5.5551 2.48,5.7471 2.883,5.7471 C3.67,5.7471 3.897,5.0561 4.142,4.1731 L4.125,4.1551 C3.801,4.5841 3.39,4.7931 2.883,4.7931 C1.807,4.7931 1.142,4.0591 1.142,2.9481 C1.142,1.6281 1.974,0.2201 3.425,0.2201 C4.047,0.2201 4.553,0.4381 4.807,1.0331 L4.824,1.0331 L4.965,0.3421 L6.154,0.3421 L5.253,4.6271 Z" id="Fill-517"></path>
            </g>
            <g id="Group-522" transform="translate(212.000000, 88.000000)" fill="#00558D">
                <path d="M1.7268,2.8611 C1.7268,3.3941 1.9888,3.8581 2.5668,3.8581 C3.4578,3.8581 3.8868,2.9051 3.8868,2.1351 C3.8868,1.5661 3.5978,1.1551 2.9948,1.1551 C2.1638,1.1551 1.7268,2.1351 1.7268,2.8611 L1.7268,2.8611 Z M4.5958,4.6271 C4.2898,6.0011 3.5978,6.5781 2.1028,6.5781 C1.1848,6.5781 0.1698,6.1851 0.1698,5.1001 L1.4118,5.1001 C1.3948,5.5551 1.8228,5.7471 2.2248,5.7471 C3.0128,5.7471 3.2398,5.0561 3.4848,4.1731 L3.4668,4.1551 C3.1428,4.5841 2.7328,4.7931 2.2248,4.7931 C1.1498,4.7931 0.4848,4.0591 0.4848,2.9481 C0.4848,1.6281 1.3158,0.2201 2.7668,0.2201 C3.3888,0.2201 3.8958,0.4381 4.1488,1.0331 L4.1668,1.0331 L4.3068,0.3421 L5.4968,0.3421 L4.5958,4.6271 Z" id="Fill-520"></path>
            </g>
            <g id="Group-525" transform="translate(217.000000, 86.000000)" fill="#00558D">
                <path d="M2.9259,1.6425 L1.6759,1.6425 L1.9029,0.6195 L3.1539,0.6195 L2.9259,1.6425 Z M1.5349,2.3425 L2.7859,2.3425 L1.8249,6.8645 L0.5729,6.8645 L1.5349,2.3425 Z" id="Fill-523"></path>
            </g>
        </g>
    </g>
</svg>